<svg viewBox="0 0 1024 1024" xmlns="http://www.w3.org/2000/svg" fill="#4f46e5" stroke="#0a2d57" stroke-width="2">
<path d="M 128 177 L 127 178 L 126 178 L 123 181 L 123 182 L 122 183 L 122 192 L 126 196 L 127 196 L 128 197 L 130 197 L 131 198 L 134 198 L 135 199 L 140 199 L 141 200 L 144 200 L 145 201 L 148 201 L 149 202 L 151 202 L 152 203 L 154 203 L 155 204 L 157 204 L 158 205 L 159 205 L 160 206 L 161 206 L 162 207 L 163 207 L 164 208 L 165 208 L 166 209 L 167 209 L 168 210 L 169 210 L 172 213 L 173 213 L 178 218 L 178 219 L 181 222 L 181 223 L 183 225 L 183 226 L 184 227 L 184 228 L 186 230 L 186 231 L 187 232 L 187 233 L 188 234 L 188 235 L 189 236 L 189 237 L 190 238 L 190 239 L 191 240 L 191 242 L 192 243 L 192 244 L 193 245 L 193 246 L 194 247 L 194 248 L 195 249 L 195 251 L 196 252 L 196 254 L 197 255 L 197 256 L 198 257 L 198 258 L 199 259 L 199 261 L 200 262 L 200 263 L 201 264 L 201 265 L 202 266 L 202 268 L 203 269 L 203 270 L 204 271 L 204 273 L 205 274 L 205 275 L 206 276 L 206 278 L 207 279 L 207 280 L 208 281 L 208 282 L 209 283 L 209 285 L 210 286 L 210 287 L 211 288 L 211 290 L 212 291 L 212 292 L 213 293 L 213 294 L 214 295 L 214 297 L 215 298 L 215 299 L 216 300 L 216 302 L 217 303 L 217 304 L 218 305 L 218 307 L 219 308 L 219 309 L 220 310 L 220 311 L 221 312 L 221 314 L 222 315 L 222 316 L 223 317 L 223 319 L 224 320 L 224 321 L 225 322 L 225 324 L 226 325 L 226 326 L 227 327 L 227 328 L 228 329 L 228 331 L 229 332 L 229 333 L 230 334 L 230 335 L 231 336 L 231 338 L 232 339 L 232 340 L 233 341 L 233 343 L 234 344 L 234 345 L 235 346 L 235 347 L 236 348 L 236 350 L 237 351 L 237 352 L 238 353 L 238 354 L 239 355 L 239 357 L 240 358 L 240 359 L 241 360 L 241 362 L 242 363 L 242 364 L 243 365 L 243 366 L 244 367 L 244 369 L 245 370 L 245 372 L 246 373 L 246 374 L 247 375 L 247 376 L 248 377 L 248 379 L 249 380 L 249 381 L 250 382 L 250 383 L 251 384 L 251 386 L 252 387 L 252 388 L 253 389 L 253 391 L 254 392 L 254 393 L 255 394 L 255 395 L 256 396 L 256 398 L 257 399 L 257 400 L 258 401 L 258 403 L 259 404 L 259 405 L 260 406 L 260 408 L 261 409 L 261 410 L 262 411 L 262 412 L 263 413 L 263 415 L 264 416 L 264 417 L 265 418 L 265 419 L 266 420 L 266 422 L 267 423 L 267 424 L 268 425 L 268 427 L 269 428 L 269 429 L 270 430 L 270 432 L 271 433 L 271 434 L 272 435 L 272 436 L 273 437 L 273 439 L 274 440 L 274 441 L 275 442 L 275 444 L 276 445 L 276 446 L 277 447 L 277 448 L 278 449 L 278 451 L 279 452 L 279 453 L 280 454 L 280 456 L 281 457 L 281 458 L 282 459 L 282 461 L 283 462 L 283 463 L 284 464 L 284 466 L 285 467 L 285 468 L 286 469 L 286 471 L 287 472 L 287 473 L 288 474 L 288 475 L 289 476 L 289 478 L 290 479 L 290 480 L 291 481 L 291 483 L 292 484 L 292 485 L 293 486 L 293 487 L 294 488 L 294 489 L 295 490 L 295 492 L 296 493 L 296 494 L 297 495 L 297 496 L 298 497 L 298 498 L 299 499 L 299 500 L 300 501 L 300 502 L 301 503 L 301 504 L 302 505 L 302 507 L 303 508 L 303 509 L 304 510 L 304 511 L 305 512 L 305 513 L 306 514 L 306 515 L 307 516 L 307 517 L 308 518 L 308 519 L 309 520 L 309 521 L 310 522 L 310 523 L 312 525 L 312 526 L 313 527 L 313 528 L 314 529 L 314 530 L 315 531 L 315 532 L 316 533 L 316 534 L 317 535 L 317 536 L 318 537 L 318 538 L 320 540 L 319 541 L 318 541 L 317 540 L 316 540 L 314 538 L 313 538 L 312 537 L 310 537 L 308 535 L 307 535 L 306 534 L 305 534 L 304 533 L 303 533 L 302 532 L 301 532 L 300 531 L 299 531 L 298 530 L 296 530 L 295 529 L 294 529 L 293 528 L 292 528 L 291 527 L 290 527 L 289 526 L 288 526 L 287 525 L 286 525 L 285 524 L 284 524 L 281 521 L 280 521 L 279 520 L 278 520 L 275 517 L 274 517 L 269 512 L 269 511 L 265 507 L 265 506 L 264 505 L 263 505 L 262 504 L 262 503 L 261 502 L 261 501 L 260 500 L 260 498 L 259 497 L 259 495 L 258 494 L 258 492 L 257 491 L 257 488 L 256 487 L 256 485 L 255 484 L 255 481 L 254 480 L 254 478 L 253 477 L 253 474 L 252 473 L 252 469 L 251 468 L 251 462 L 250 461 L 250 455 L 249 454 L 249 449 L 248 448 L 248 443 L 247 442 L 247 440 L 246 439 L 246 438 L 245 437 L 242 437 L 240 439 L 240 448 L 241 449 L 241 456 L 240 457 L 240 460 L 241 461 L 241 472 L 242 473 L 242 479 L 243 480 L 243 483 L 242 484 L 240 482 L 239 482 L 237 480 L 236 480 L 233 477 L 232 477 L 228 473 L 227 473 L 220 466 L 219 466 L 216 463 L 215 463 L 214 462 L 210 462 L 208 464 L 208 469 L 209 470 L 209 471 L 210 472 L 211 472 L 217 478 L 218 478 L 221 481 L 222 481 L 224 483 L 225 483 L 227 485 L 228 485 L 231 488 L 232 488 L 233 489 L 234 489 L 238 493 L 239 493 L 246 500 L 246 501 L 250 505 L 250 506 L 252 508 L 252 509 L 254 511 L 254 512 L 256 514 L 256 515 L 258 517 L 258 518 L 261 521 L 260 522 L 254 522 L 253 523 L 252 522 L 240 522 L 239 521 L 232 521 L 231 520 L 226 520 L 225 519 L 223 519 L 222 518 L 220 518 L 219 517 L 217 517 L 216 516 L 215 516 L 214 515 L 213 515 L 212 514 L 211 514 L 210 513 L 208 513 L 207 512 L 206 512 L 205 511 L 204 511 L 203 510 L 198 510 L 197 511 L 197 514 L 200 517 L 201 517 L 204 520 L 205 520 L 206 521 L 207 521 L 208 522 L 209 522 L 211 524 L 212 524 L 213 525 L 214 525 L 215 526 L 216 526 L 217 527 L 218 527 L 219 528 L 220 528 L 221 529 L 224 529 L 225 530 L 227 530 L 228 531 L 232 531 L 233 532 L 246 532 L 247 533 L 257 533 L 258 534 L 263 534 L 264 535 L 268 535 L 269 536 L 272 536 L 273 537 L 276 537 L 277 538 L 278 538 L 279 539 L 282 539 L 283 540 L 284 540 L 285 541 L 286 541 L 287 542 L 289 542 L 291 544 L 292 544 L 293 545 L 294 545 L 295 546 L 296 546 L 297 547 L 298 547 L 300 549 L 301 549 L 303 551 L 304 551 L 306 553 L 307 553 L 309 555 L 310 555 L 312 557 L 313 557 L 315 559 L 316 559 L 320 563 L 321 563 L 327 569 L 328 569 L 340 581 L 341 581 L 345 585 L 346 585 L 349 588 L 350 588 L 352 590 L 353 590 L 354 591 L 355 591 L 357 593 L 358 593 L 359 594 L 360 594 L 361 595 L 362 595 L 363 596 L 364 596 L 365 597 L 366 597 L 367 598 L 368 598 L 369 599 L 371 599 L 372 600 L 373 600 L 374 601 L 376 601 L 377 602 L 378 602 L 379 603 L 381 603 L 382 604 L 383 604 L 384 605 L 386 605 L 387 606 L 389 606 L 390 607 L 391 607 L 392 608 L 393 608 L 394 609 L 396 609 L 397 610 L 398 610 L 399 611 L 400 611 L 401 612 L 402 612 L 403 613 L 404 613 L 405 614 L 406 614 L 407 615 L 408 615 L 408 614 L 407 613 L 407 609 L 406 608 L 406 605 L 405 604 L 405 603 L 404 602 L 404 600 L 403 599 L 403 598 L 401 596 L 401 595 L 400 594 L 400 593 L 397 590 L 397 589 L 394 586 L 394 585 L 391 582 L 391 581 L 387 577 L 387 576 L 385 574 L 385 573 L 381 569 L 381 568 L 378 565 L 378 564 L 374 560 L 374 559 L 372 557 L 372 556 L 368 552 L 368 551 L 365 548 L 365 547 L 362 544 L 362 543 L 360 541 L 360 540 L 358 538 L 358 537 L 355 534 L 355 533 L 353 531 L 353 530 L 351 528 L 351 527 L 349 525 L 349 524 L 347 522 L 347 521 L 346 520 L 346 519 L 344 517 L 344 516 L 342 514 L 342 513 L 341 512 L 341 511 L 339 509 L 339 508 L 338 507 L 338 506 L 336 504 L 336 503 L 335 502 L 335 501 L 334 500 L 334 499 L 333 498 L 333 497 L 332 496 L 332 495 L 330 493 L 330 492 L 329 491 L 329 490 L 328 489 L 328 488 L 327 487 L 327 486 L 326 485 L 326 484 L 325 483 L 325 482 L 324 481 L 324 480 L 323 479 L 323 478 L 322 477 L 322 476 L 321 475 L 321 473 L 320 472 L 320 471 L 319 470 L 319 468 L 318 467 L 318 466 L 317 465 L 317 463 L 316 462 L 316 461 L 315 460 L 315 458 L 314 457 L 314 455 L 313 454 L 313 452 L 312 451 L 312 449 L 311 448 L 311 446 L 310 445 L 310 443 L 309 442 L 309 439 L 308 438 L 308 435 L 307 434 L 307 430 L 306 429 L 306 425 L 305 424 L 305 420 L 304 419 L 304 414 L 303 413 L 303 408 L 302 407 L 302 402 L 301 401 L 301 397 L 300 396 L 300 392 L 299 391 L 299 388 L 298 387 L 298 383 L 297 382 L 297 380 L 296 379 L 296 375 L 295 374 L 295 371 L 294 370 L 294 368 L 293 367 L 293 364 L 292 363 L 292 361 L 291 360 L 291 357 L 290 356 L 290 354 L 289 353 L 289 351 L 288 350 L 288 347 L 287 346 L 287 344 L 286 343 L 286 341 L 285 340 L 285 337 L 284 336 L 284 334 L 283 333 L 283 331 L 282 330 L 282 327 L 281 326 L 281 324 L 280 323 L 280 320 L 279 319 L 279 317 L 278 316 L 278 314 L 277 313 L 277 310 L 276 309 L 276 308 L 275 307 L 275 306 L 274 305 L 274 304 L 273 303 L 273 302 L 270 299 L 270 298 L 268 296 L 267 296 L 241 270 L 241 269 L 239 267 L 239 266 L 238 265 L 238 261 L 239 260 L 240 260 L 241 261 L 241 262 L 243 264 L 243 265 L 246 268 L 246 269 L 247 270 L 248 270 L 255 277 L 256 277 L 258 279 L 259 279 L 261 281 L 262 281 L 263 282 L 264 282 L 265 283 L 266 283 L 267 284 L 271 284 L 271 278 L 272 277 L 272 274 L 273 273 L 273 269 L 274 268 L 274 265 L 275 264 L 275 262 L 276 261 L 276 259 L 277 258 L 277 257 L 278 256 L 278 254 L 279 253 L 279 252 L 280 251 L 281 252 L 281 254 L 280 255 L 280 259 L 279 260 L 279 264 L 278 265 L 278 268 L 277 269 L 277 271 L 276 272 L 276 275 L 275 276 L 275 280 L 274 281 L 274 285 L 275 286 L 275 289 L 276 290 L 276 292 L 277 293 L 277 294 L 278 295 L 278 296 L 279 297 L 279 299 L 280 300 L 280 301 L 281 302 L 281 304 L 282 305 L 282 307 L 283 308 L 283 310 L 284 311 L 284 313 L 285 314 L 285 316 L 286 317 L 286 319 L 287 320 L 287 321 L 288 322 L 288 323 L 289 324 L 289 326 L 290 327 L 290 328 L 292 330 L 292 331 L 293 332 L 293 333 L 294 334 L 294 335 L 296 337 L 296 339 L 297 340 L 298 340 L 298 338 L 299 337 L 299 335 L 300 334 L 300 331 L 301 330 L 301 328 L 302 327 L 302 324 L 303 323 L 303 320 L 304 319 L 304 316 L 305 315 L 305 311 L 306 310 L 306 307 L 307 306 L 307 299 L 306 298 L 306 277 L 307 276 L 308 277 L 308 278 L 309 279 L 309 281 L 310 282 L 310 286 L 311 287 L 311 291 L 312 292 L 312 302 L 313 303 L 313 308 L 312 309 L 312 317 L 311 318 L 311 321 L 310 322 L 310 325 L 309 326 L 309 329 L 308 330 L 308 333 L 307 334 L 307 336 L 306 337 L 306 340 L 305 341 L 305 347 L 304 348 L 304 357 L 305 358 L 305 365 L 306 366 L 306 371 L 307 372 L 307 377 L 308 378 L 308 383 L 309 384 L 309 389 L 310 390 L 310 394 L 311 395 L 311 398 L 312 399 L 312 402 L 313 403 L 313 404 L 314 405 L 314 408 L 315 409 L 315 410 L 316 411 L 316 413 L 317 414 L 317 416 L 318 415 L 318 414 L 319 413 L 319 412 L 320 411 L 320 410 L 321 409 L 321 408 L 322 407 L 322 406 L 323 405 L 323 404 L 324 403 L 324 401 L 326 399 L 326 398 L 327 397 L 327 395 L 328 394 L 328 393 L 329 392 L 329 391 L 330 390 L 330 388 L 331 387 L 331 385 L 332 384 L 332 382 L 333 381 L 333 378 L 334 377 L 334 374 L 335 373 L 335 369 L 336 368 L 336 365 L 337 364 L 337 363 L 338 362 L 339 363 L 339 370 L 338 371 L 338 376 L 337 377 L 338 378 L 337 379 L 337 384 L 336 385 L 336 389 L 335 390 L 335 392 L 334 393 L 334 395 L 333 396 L 333 397 L 332 398 L 332 400 L 331 401 L 331 403 L 330 404 L 330 406 L 329 407 L 329 409 L 328 410 L 328 412 L 327 413 L 327 415 L 326 416 L 326 418 L 325 419 L 325 421 L 324 422 L 324 425 L 323 426 L 323 435 L 324 436 L 324 441 L 325 442 L 325 446 L 326 447 L 326 450 L 327 451 L 327 454 L 328 455 L 328 457 L 329 458 L 329 460 L 330 461 L 330 462 L 331 463 L 331 464 L 332 465 L 332 466 L 333 467 L 333 468 L 334 469 L 334 470 L 335 471 L 335 472 L 337 474 L 337 475 L 338 476 L 338 477 L 341 480 L 341 481 L 345 485 L 345 486 L 348 489 L 348 486 L 349 485 L 349 478 L 350 477 L 350 470 L 351 469 L 350 468 L 350 467 L 351 466 L 351 458 L 352 457 L 352 446 L 353 445 L 353 426 L 352 425 L 352 420 L 351 419 L 351 415 L 352 414 L 353 415 L 353 417 L 354 418 L 354 422 L 355 423 L 355 426 L 356 427 L 356 430 L 357 431 L 357 435 L 358 436 L 358 440 L 359 441 L 359 458 L 358 459 L 358 472 L 357 473 L 357 487 L 356 488 L 357 489 L 357 494 L 358 495 L 358 500 L 359 501 L 359 505 L 360 506 L 360 509 L 361 510 L 361 512 L 362 513 L 362 515 L 363 516 L 363 518 L 364 519 L 364 520 L 365 521 L 365 522 L 366 523 L 366 524 L 368 526 L 368 527 L 370 529 L 370 530 L 373 533 L 373 534 L 376 537 L 376 538 L 381 543 L 381 544 L 386 549 L 386 550 L 389 553 L 389 554 L 392 557 L 392 558 L 394 560 L 394 561 L 396 563 L 396 564 L 398 566 L 398 567 L 400 569 L 400 570 L 401 571 L 401 572 L 403 574 L 403 575 L 405 577 L 405 578 L 406 579 L 406 580 L 407 581 L 407 582 L 408 583 L 408 584 L 410 586 L 410 587 L 411 588 L 411 589 L 412 590 L 412 591 L 413 592 L 413 593 L 414 594 L 414 595 L 415 596 L 415 597 L 416 598 L 416 599 L 417 600 L 417 601 L 418 602 L 418 603 L 419 604 L 419 605 L 420 606 L 420 607 L 421 608 L 421 609 L 422 610 L 422 611 L 423 612 L 423 613 L 425 615 L 425 616 L 426 617 L 426 619 L 428 621 L 428 623 L 429 624 L 429 625 L 430 626 L 430 627 L 431 628 L 431 629 L 432 630 L 432 631 L 433 632 L 433 633 L 434 634 L 434 635 L 435 636 L 435 637 L 436 638 L 436 639 L 437 640 L 437 641 L 438 642 L 438 643 L 439 644 L 439 645 L 440 646 L 440 647 L 441 648 L 441 649 L 442 650 L 442 651 L 443 652 L 443 653 L 444 654 L 444 655 L 445 656 L 445 657 L 446 658 L 446 660 L 447 661 L 447 662 L 448 663 L 448 664 L 449 665 L 449 666 L 450 667 L 450 669 L 451 670 L 451 671 L 452 672 L 452 673 L 453 674 L 453 676 L 454 677 L 454 678 L 455 679 L 455 681 L 456 682 L 456 683 L 457 684 L 457 686 L 458 687 L 458 689 L 459 690 L 459 692 L 460 693 L 460 694 L 461 695 L 461 697 L 462 698 L 462 699 L 463 700 L 463 702 L 464 703 L 464 705 L 465 706 L 465 708 L 466 709 L 466 710 L 467 711 L 467 713 L 468 714 L 468 716 L 469 717 L 469 719 L 470 720 L 470 722 L 471 723 L 471 724 L 472 725 L 472 727 L 473 728 L 473 730 L 474 731 L 474 733 L 475 734 L 475 736 L 476 737 L 476 739 L 477 740 L 477 742 L 478 743 L 478 746 L 479 747 L 479 750 L 480 751 L 480 753 L 481 754 L 480 755 L 479 755 L 478 754 L 478 752 L 477 751 L 477 750 L 476 749 L 476 748 L 474 746 L 474 745 L 473 744 L 473 743 L 472 742 L 472 741 L 471 740 L 471 739 L 469 737 L 469 736 L 468 735 L 468 734 L 467 733 L 467 732 L 466 731 L 466 730 L 465 729 L 465 728 L 464 727 L 464 726 L 463 725 L 463 724 L 462 723 L 462 722 L 461 721 L 461 720 L 460 719 L 460 718 L 459 717 L 459 716 L 458 715 L 458 713 L 457 712 L 457 711 L 456 710 L 456 709 L 455 708 L 455 707 L 454 706 L 454 705 L 453 704 L 453 702 L 452 701 L 452 700 L 451 699 L 451 698 L 450 697 L 450 696 L 449 695 L 449 693 L 448 692 L 448 691 L 447 690 L 447 689 L 446 688 L 446 687 L 445 686 L 445 685 L 444 684 L 444 682 L 443 681 L 443 680 L 442 679 L 442 678 L 441 677 L 441 676 L 440 675 L 440 674 L 439 673 L 439 672 L 437 670 L 437 669 L 435 667 L 435 666 L 432 663 L 432 662 L 430 660 L 430 659 L 429 658 L 429 657 L 428 656 L 428 655 L 426 653 L 426 652 L 425 651 L 425 650 L 423 648 L 423 647 L 421 645 L 421 644 L 411 634 L 410 634 L 407 631 L 406 631 L 405 630 L 404 630 L 402 628 L 401 628 L 399 626 L 398 626 L 397 625 L 396 625 L 395 624 L 394 624 L 393 623 L 392 623 L 391 622 L 390 622 L 389 621 L 388 621 L 387 620 L 386 620 L 385 619 L 383 619 L 382 618 L 380 618 L 379 617 L 377 617 L 376 616 L 374 616 L 373 615 L 372 615 L 371 614 L 369 614 L 368 613 L 366 613 L 365 612 L 362 612 L 361 611 L 355 611 L 354 610 L 313 610 L 312 609 L 309 609 L 308 608 L 306 608 L 305 607 L 304 607 L 302 605 L 301 605 L 300 604 L 299 604 L 297 602 L 296 602 L 294 600 L 293 600 L 291 598 L 290 598 L 288 596 L 287 596 L 285 594 L 284 594 L 281 591 L 280 591 L 273 584 L 268 584 L 266 586 L 266 587 L 265 588 L 266 589 L 266 591 L 277 602 L 278 602 L 281 605 L 282 605 L 284 607 L 285 607 L 287 609 L 288 609 L 289 610 L 290 610 L 291 611 L 292 611 L 293 612 L 294 612 L 295 613 L 296 613 L 297 614 L 298 614 L 299 615 L 300 615 L 301 616 L 302 616 L 303 617 L 304 617 L 306 619 L 305 620 L 304 620 L 302 622 L 301 622 L 299 624 L 298 624 L 296 626 L 295 626 L 294 627 L 293 627 L 292 628 L 290 628 L 289 629 L 288 629 L 287 630 L 285 630 L 284 631 L 281 631 L 280 632 L 275 632 L 274 633 L 270 633 L 269 632 L 266 632 L 265 633 L 263 633 L 262 634 L 262 637 L 261 638 L 262 639 L 262 640 L 264 642 L 266 642 L 267 643 L 280 643 L 281 642 L 284 642 L 285 641 L 287 641 L 288 640 L 290 640 L 291 639 L 292 639 L 293 638 L 294 638 L 295 637 L 297 637 L 298 636 L 299 636 L 300 635 L 301 635 L 303 633 L 304 633 L 305 632 L 306 632 L 307 631 L 308 631 L 309 630 L 310 630 L 311 629 L 313 629 L 314 628 L 315 628 L 316 627 L 318 627 L 319 626 L 320 626 L 321 625 L 324 625 L 325 624 L 328 624 L 329 623 L 333 623 L 334 622 L 348 622 L 349 623 L 352 623 L 353 624 L 355 624 L 356 625 L 358 625 L 359 626 L 359 627 L 360 628 L 360 629 L 361 630 L 361 632 L 362 633 L 362 634 L 363 635 L 363 637 L 364 638 L 364 639 L 365 640 L 365 641 L 366 642 L 366 643 L 367 644 L 367 646 L 368 647 L 368 648 L 369 649 L 369 650 L 370 651 L 370 653 L 371 654 L 371 655 L 372 656 L 372 658 L 373 659 L 373 660 L 374 661 L 374 662 L 375 663 L 375 664 L 376 665 L 376 667 L 377 668 L 377 669 L 378 670 L 378 671 L 379 672 L 379 674 L 380 675 L 380 676 L 381 677 L 381 678 L 382 679 L 382 681 L 383 682 L 383 683 L 384 684 L 384 686 L 385 687 L 385 688 L 386 689 L 386 691 L 387 692 L 387 693 L 388 694 L 388 696 L 389 697 L 389 698 L 390 699 L 390 701 L 391 702 L 391 704 L 392 705 L 392 706 L 393 707 L 393 708 L 394 709 L 394 711 L 395 712 L 395 714 L 396 715 L 396 716 L 397 717 L 397 718 L 398 719 L 398 721 L 399 722 L 399 723 L 400 724 L 400 726 L 401 727 L 401 728 L 402 729 L 402 730 L 403 731 L 403 733 L 404 734 L 404 736 L 405 737 L 405 738 L 406 739 L 406 740 L 407 741 L 407 743 L 408 744 L 408 745 L 409 746 L 409 748 L 410 749 L 410 750 L 411 751 L 411 753 L 412 754 L 412 755 L 413 756 L 413 758 L 414 759 L 414 760 L 415 761 L 415 763 L 416 764 L 416 765 L 417 766 L 417 768 L 418 769 L 418 770 L 419 771 L 419 773 L 420 774 L 420 775 L 421 776 L 421 777 L 422 778 L 422 780 L 423 781 L 423 782 L 424 783 L 424 785 L 425 786 L 425 787 L 426 788 L 426 789 L 427 790 L 427 792 L 428 793 L 428 794 L 429 795 L 429 797 L 430 798 L 430 799 L 431 800 L 431 802 L 432 803 L 432 804 L 433 805 L 433 807 L 434 808 L 434 809 L 435 810 L 435 811 L 436 812 L 436 814 L 437 815 L 437 816 L 438 817 L 438 819 L 439 820 L 439 821 L 440 822 L 440 824 L 441 825 L 441 826 L 442 827 L 442 828 L 443 829 L 443 831 L 444 832 L 444 833 L 445 834 L 445 836 L 446 837 L 446 838 L 447 839 L 447 841 L 448 842 L 448 843 L 449 844 L 449 845 L 450 846 L 450 848 L 451 849 L 451 850 L 452 851 L 452 852 L 453 853 L 453 855 L 454 856 L 454 857 L 455 858 L 455 859 L 456 860 L 456 861 L 458 863 L 458 864 L 459 865 L 459 866 L 461 868 L 461 869 L 465 873 L 465 874 L 466 874 L 470 878 L 471 878 L 473 880 L 474 880 L 475 881 L 476 881 L 477 882 L 479 882 L 480 883 L 482 883 L 483 884 L 509 884 L 510 883 L 512 883 L 513 882 L 515 882 L 516 881 L 517 881 L 519 879 L 520 879 L 521 878 L 522 878 L 529 871 L 529 870 L 531 868 L 531 867 L 533 865 L 533 864 L 535 862 L 535 861 L 536 860 L 536 859 L 537 858 L 537 857 L 538 856 L 538 855 L 539 854 L 539 853 L 540 852 L 540 851 L 541 850 L 541 849 L 542 848 L 542 846 L 543 845 L 543 844 L 544 843 L 544 842 L 545 841 L 545 840 L 546 839 L 546 838 L 547 837 L 547 836 L 548 835 L 548 833 L 549 832 L 549 831 L 550 830 L 550 829 L 551 828 L 551 827 L 552 826 L 552 825 L 553 824 L 553 823 L 554 822 L 554 820 L 555 819 L 555 818 L 556 817 L 556 816 L 557 815 L 557 814 L 558 813 L 558 812 L 559 811 L 559 810 L 560 809 L 560 808 L 561 807 L 561 806 L 562 805 L 562 803 L 564 801 L 564 799 L 565 798 L 565 797 L 566 796 L 566 795 L 567 794 L 567 793 L 568 792 L 568 791 L 569 790 L 569 789 L 570 788 L 570 786 L 571 785 L 571 784 L 572 783 L 572 782 L 573 781 L 573 780 L 574 779 L 574 778 L 575 777 L 575 776 L 576 775 L 576 774 L 577 773 L 577 772 L 578 771 L 578 769 L 579 768 L 579 767 L 580 766 L 580 765 L 581 764 L 581 763 L 582 762 L 582 761 L 583 760 L 583 758 L 584 757 L 584 756 L 585 755 L 585 754 L 586 753 L 586 752 L 587 751 L 587 750 L 588 749 L 588 747 L 589 746 L 589 745 L 590 744 L 590 743 L 591 742 L 591 741 L 592 740 L 592 739 L 593 738 L 593 737 L 594 736 L 594 734 L 595 733 L 595 732 L 596 731 L 596 730 L 597 729 L 597 728 L 598 727 L 598 726 L 599 725 L 599 723 L 600 722 L 600 721 L 601 720 L 601 719 L 602 718 L 602 717 L 603 716 L 603 715 L 604 714 L 604 713 L 605 712 L 605 710 L 606 709 L 606 708 L 607 707 L 607 706 L 608 705 L 608 704 L 609 703 L 609 702 L 610 701 L 610 700 L 611 699 L 611 697 L 612 696 L 612 695 L 613 694 L 613 693 L 614 692 L 614 691 L 615 690 L 615 689 L 616 688 L 616 687 L 617 686 L 617 684 L 618 683 L 618 682 L 619 681 L 619 680 L 620 679 L 620 678 L 621 677 L 621 676 L 623 674 L 623 673 L 624 672 L 624 671 L 626 669 L 626 668 L 627 667 L 627 666 L 629 664 L 629 663 L 631 661 L 631 660 L 635 656 L 635 655 L 649 641 L 650 641 L 652 639 L 653 639 L 655 637 L 656 637 L 657 636 L 658 636 L 660 634 L 661 634 L 662 633 L 664 633 L 665 632 L 666 632 L 667 631 L 669 631 L 670 630 L 673 630 L 674 629 L 679 629 L 680 628 L 690 628 L 691 629 L 696 629 L 697 630 L 701 630 L 702 631 L 706 631 L 707 632 L 724 632 L 725 631 L 729 631 L 730 630 L 731 630 L 731 625 L 724 625 L 723 626 L 713 626 L 712 625 L 708 625 L 707 624 L 704 624 L 703 623 L 704 622 L 705 622 L 704 622 L 703 621 L 701 621 L 699 619 L 701 617 L 702 617 L 705 614 L 706 614 L 709 611 L 710 611 L 712 609 L 713 609 L 715 607 L 716 607 L 717 606 L 718 606 L 719 605 L 720 605 L 721 604 L 722 604 L 723 603 L 724 603 L 726 601 L 727 601 L 728 600 L 729 600 L 731 598 L 731 594 L 730 593 L 730 592 L 723 592 L 722 593 L 721 593 L 720 594 L 718 594 L 717 595 L 716 595 L 714 597 L 713 597 L 711 599 L 710 599 L 709 600 L 708 600 L 706 602 L 705 602 L 703 604 L 702 604 L 701 605 L 700 605 L 699 606 L 698 606 L 697 607 L 696 607 L 695 608 L 694 608 L 693 609 L 692 609 L 691 610 L 690 610 L 689 611 L 687 611 L 685 613 L 683 613 L 682 614 L 681 614 L 680 615 L 678 615 L 677 616 L 676 616 L 675 617 L 671 617 L 670 618 L 667 618 L 666 619 L 662 619 L 661 620 L 658 620 L 657 621 L 655 621 L 654 622 L 652 622 L 651 623 L 650 623 L 649 624 L 648 624 L 646 626 L 645 625 L 645 624 L 646 623 L 646 622 L 647 621 L 647 620 L 648 619 L 648 618 L 649 617 L 649 616 L 650 615 L 650 614 L 651 613 L 651 612 L 652 611 L 652 610 L 653 609 L 653 608 L 654 607 L 654 606 L 655 605 L 655 604 L 656 603 L 656 602 L 657 601 L 657 600 L 659 598 L 659 597 L 660 596 L 660 595 L 661 594 L 661 593 L 662 592 L 662 591 L 663 590 L 663 589 L 664 588 L 664 587 L 665 586 L 665 585 L 666 584 L 666 583 L 667 582 L 667 581 L 668 580 L 668 579 L 670 577 L 670 575 L 671 574 L 671 572 L 672 571 L 672 570 L 671 569 L 670 569 L 656 583 L 656 584 L 653 587 L 652 587 L 652 588 L 625 615 L 624 615 L 624 616 L 620 620 L 619 620 L 612 627 L 611 627 L 611 628 L 609 630 L 608 630 L 584 654 L 584 655 L 580 659 L 580 660 L 576 664 L 576 665 L 573 668 L 573 669 L 571 671 L 571 672 L 568 675 L 568 676 L 566 678 L 566 679 L 564 681 L 564 682 L 563 683 L 563 684 L 561 686 L 561 687 L 560 688 L 560 689 L 559 690 L 559 691 L 558 692 L 558 693 L 557 694 L 557 695 L 556 696 L 556 697 L 555 698 L 555 699 L 554 700 L 554 701 L 553 702 L 553 704 L 552 705 L 552 706 L 551 707 L 551 709 L 550 710 L 550 712 L 549 713 L 549 715 L 548 716 L 548 718 L 547 719 L 546 718 L 546 715 L 547 714 L 547 712 L 548 711 L 548 709 L 549 708 L 549 705 L 550 704 L 550 702 L 551 701 L 551 700 L 552 699 L 552 697 L 553 696 L 553 695 L 554 694 L 554 692 L 555 691 L 555 690 L 556 689 L 556 687 L 557 686 L 557 685 L 558 684 L 558 683 L 559 682 L 559 681 L 560 680 L 560 679 L 562 677 L 562 676 L 563 675 L 563 674 L 564 673 L 564 672 L 565 671 L 565 670 L 566 669 L 566 668 L 567 667 L 567 666 L 568 665 L 568 664 L 569 663 L 569 662 L 570 661 L 570 660 L 571 659 L 571 658 L 573 656 L 573 655 L 574 654 L 574 653 L 575 652 L 575 651 L 577 649 L 577 648 L 578 647 L 578 646 L 581 643 L 581 642 L 584 639 L 584 638 L 587 635 L 587 634 L 591 630 L 591 629 L 595 625 L 595 624 L 598 621 L 598 620 L 601 617 L 601 616 L 603 614 L 603 613 L 605 611 L 605 610 L 606 609 L 606 608 L 608 606 L 608 605 L 609 604 L 609 603 L 610 602 L 610 601 L 611 600 L 611 598 L 612 597 L 612 596 L 613 595 L 613 594 L 614 593 L 614 592 L 615 591 L 615 590 L 616 589 L 616 587 L 617 586 L 617 585 L 618 584 L 618 582 L 619 581 L 619 579 L 620 578 L 620 576 L 621 575 L 621 573 L 622 572 L 622 569 L 623 568 L 623 566 L 624 565 L 624 562 L 625 561 L 625 558 L 626 557 L 626 554 L 627 553 L 627 550 L 628 549 L 628 547 L 629 546 L 629 543 L 630 542 L 630 540 L 631 539 L 631 536 L 632 535 L 632 533 L 633 532 L 633 530 L 634 529 L 634 528 L 635 527 L 635 525 L 636 524 L 636 522 L 637 521 L 637 520 L 638 519 L 638 518 L 639 517 L 639 515 L 640 514 L 640 513 L 641 512 L 641 511 L 642 510 L 642 509 L 644 507 L 644 506 L 645 505 L 645 504 L 646 503 L 646 502 L 647 501 L 647 500 L 649 498 L 649 497 L 650 496 L 650 495 L 651 494 L 651 493 L 653 491 L 653 490 L 655 488 L 655 487 L 656 486 L 656 485 L 659 482 L 659 481 L 663 477 L 663 476 L 665 474 L 665 473 L 668 470 L 668 469 L 671 466 L 671 465 L 673 463 L 673 462 L 675 460 L 675 459 L 676 458 L 676 457 L 678 455 L 678 454 L 679 453 L 679 452 L 681 450 L 681 449 L 682 448 L 682 447 L 683 446 L 683 444 L 684 443 L 684 442 L 685 441 L 685 440 L 686 439 L 686 437 L 687 436 L 687 434 L 688 433 L 688 432 L 689 431 L 689 429 L 690 428 L 690 426 L 691 425 L 691 423 L 692 422 L 692 420 L 693 419 L 693 417 L 694 416 L 694 414 L 695 413 L 695 410 L 696 409 L 696 407 L 697 406 L 697 404 L 698 403 L 698 401 L 699 400 L 699 398 L 700 397 L 700 395 L 701 394 L 701 391 L 702 390 L 702 388 L 703 387 L 703 385 L 704 384 L 704 381 L 705 380 L 705 377 L 706 376 L 706 374 L 707 373 L 707 371 L 708 370 L 708 368 L 709 367 L 709 365 L 710 364 L 710 363 L 711 362 L 711 361 L 712 360 L 712 359 L 713 358 L 713 357 L 714 356 L 714 355 L 715 354 L 715 353 L 717 351 L 717 350 L 718 349 L 718 348 L 720 346 L 720 345 L 721 344 L 721 343 L 723 341 L 723 340 L 725 338 L 725 337 L 727 335 L 727 334 L 729 332 L 729 331 L 730 330 L 730 329 L 731 328 L 731 327 L 732 326 L 732 325 L 733 324 L 733 323 L 734 322 L 734 321 L 735 320 L 735 319 L 736 318 L 736 317 L 737 316 L 737 315 L 738 314 L 738 312 L 739 311 L 739 310 L 740 309 L 740 307 L 741 306 L 741 304 L 742 303 L 742 301 L 743 300 L 743 298 L 744 297 L 744 294 L 745 293 L 745 291 L 746 290 L 746 287 L 747 286 L 747 283 L 748 282 L 748 279 L 749 278 L 749 276 L 750 275 L 750 274 L 751 273 L 752 274 L 752 276 L 751 277 L 751 284 L 750 285 L 750 289 L 749 290 L 749 293 L 748 294 L 748 297 L 747 298 L 747 300 L 746 301 L 746 303 L 745 304 L 745 306 L 744 307 L 744 308 L 743 309 L 743 310 L 742 311 L 742 312 L 741 313 L 741 315 L 740 316 L 741 317 L 741 318 L 746 318 L 750 314 L 750 313 L 754 309 L 754 308 L 761 301 L 762 302 L 762 303 L 757 308 L 757 309 L 754 312 L 754 313 L 749 318 L 749 319 L 742 326 L 742 327 L 734 335 L 734 336 L 730 340 L 730 341 L 728 343 L 728 344 L 726 346 L 726 347 L 725 348 L 725 349 L 723 351 L 723 352 L 722 353 L 722 354 L 721 355 L 721 357 L 720 358 L 720 359 L 719 360 L 719 361 L 718 362 L 718 364 L 717 365 L 717 367 L 716 368 L 716 370 L 715 371 L 715 373 L 714 374 L 714 377 L 713 378 L 713 380 L 712 381 L 712 384 L 711 385 L 711 387 L 710 388 L 710 391 L 709 392 L 709 394 L 708 395 L 708 398 L 707 399 L 707 401 L 706 402 L 706 404 L 705 405 L 705 408 L 704 409 L 704 412 L 703 413 L 703 415 L 702 416 L 702 419 L 701 420 L 701 422 L 700 423 L 700 426 L 699 427 L 699 429 L 698 430 L 698 432 L 697 433 L 697 435 L 696 436 L 696 438 L 695 439 L 695 440 L 694 441 L 694 443 L 693 444 L 693 445 L 692 446 L 692 447 L 691 448 L 691 449 L 690 450 L 690 451 L 689 452 L 689 453 L 688 454 L 688 455 L 687 456 L 687 457 L 686 458 L 686 459 L 685 460 L 685 461 L 684 462 L 684 463 L 683 464 L 683 465 L 682 466 L 682 467 L 680 469 L 680 470 L 679 471 L 679 472 L 678 473 L 678 474 L 676 476 L 676 477 L 675 478 L 675 479 L 674 480 L 674 481 L 673 482 L 673 483 L 671 485 L 671 486 L 670 487 L 670 488 L 668 490 L 668 491 L 667 492 L 667 493 L 666 494 L 666 495 L 664 497 L 664 498 L 663 499 L 663 500 L 661 502 L 661 503 L 660 504 L 660 505 L 659 506 L 659 507 L 658 508 L 658 509 L 656 511 L 656 512 L 655 513 L 655 514 L 654 515 L 654 516 L 653 517 L 653 518 L 652 519 L 652 520 L 651 521 L 651 522 L 650 523 L 650 524 L 649 525 L 649 526 L 648 527 L 648 529 L 647 530 L 647 531 L 646 532 L 646 534 L 645 535 L 645 537 L 644 538 L 644 540 L 643 541 L 643 544 L 642 545 L 642 547 L 641 548 L 641 550 L 640 551 L 640 554 L 639 555 L 639 557 L 638 558 L 638 560 L 637 561 L 637 564 L 636 565 L 636 567 L 635 568 L 635 570 L 634 571 L 634 574 L 633 575 L 633 577 L 632 578 L 632 581 L 631 582 L 631 584 L 630 585 L 630 588 L 629 589 L 629 592 L 628 593 L 628 596 L 632 592 L 633 592 L 635 590 L 636 590 L 638 588 L 639 588 L 642 585 L 643 585 L 647 581 L 648 581 L 655 574 L 655 573 L 661 567 L 661 566 L 677 550 L 678 550 L 684 544 L 685 544 L 689 540 L 690 540 L 693 537 L 694 537 L 696 535 L 697 535 L 699 533 L 700 533 L 701 532 L 702 532 L 703 531 L 704 531 L 705 530 L 707 530 L 708 529 L 710 529 L 711 528 L 715 528 L 716 527 L 718 527 L 719 528 L 726 528 L 727 529 L 730 529 L 731 530 L 734 530 L 735 531 L 738 531 L 739 532 L 743 532 L 744 533 L 759 533 L 760 532 L 762 532 L 763 531 L 765 531 L 767 529 L 767 526 L 765 524 L 764 524 L 763 523 L 762 524 L 743 524 L 742 523 L 738 523 L 737 522 L 736 522 L 735 521 L 734 521 L 733 520 L 732 520 L 731 519 L 729 519 L 728 518 L 726 518 L 725 517 L 726 516 L 727 516 L 732 511 L 733 511 L 737 507 L 738 507 L 741 504 L 742 504 L 744 502 L 745 502 L 747 500 L 748 500 L 750 498 L 751 498 L 753 496 L 754 496 L 756 494 L 757 494 L 759 492 L 760 492 L 761 491 L 762 491 L 763 490 L 767 490 L 768 489 L 778 489 L 779 488 L 789 488 L 790 487 L 794 487 L 795 486 L 797 486 L 798 485 L 801 485 L 802 484 L 803 484 L 804 483 L 805 483 L 806 482 L 807 482 L 808 481 L 809 481 L 812 478 L 813 478 L 814 477 L 815 477 L 815 476 L 816 475 L 816 474 L 814 472 L 813 472 L 812 471 L 808 471 L 807 472 L 806 472 L 805 473 L 804 473 L 803 474 L 801 474 L 800 475 L 797 475 L 796 476 L 793 476 L 792 477 L 787 477 L 786 478 L 776 478 L 775 477 L 777 475 L 777 474 L 780 471 L 780 470 L 783 467 L 783 466 L 786 463 L 786 462 L 789 459 L 789 458 L 792 455 L 792 454 L 800 446 L 800 445 L 802 443 L 802 438 L 800 436 L 796 436 L 793 439 L 793 440 L 788 445 L 788 446 L 784 450 L 784 451 L 780 455 L 780 456 L 775 461 L 775 462 L 771 466 L 771 467 L 759 479 L 758 479 L 754 483 L 753 483 L 750 486 L 749 486 L 747 488 L 746 488 L 745 489 L 744 489 L 743 490 L 742 490 L 741 491 L 740 491 L 738 493 L 737 493 L 736 494 L 735 494 L 734 495 L 733 495 L 732 496 L 731 496 L 730 497 L 729 497 L 728 498 L 727 498 L 726 499 L 725 499 L 724 500 L 723 500 L 722 501 L 721 501 L 720 502 L 719 502 L 717 504 L 716 504 L 715 505 L 714 505 L 712 507 L 711 507 L 709 509 L 708 509 L 706 511 L 705 511 L 702 514 L 701 514 L 697 518 L 696 518 L 695 517 L 696 516 L 696 515 L 697 514 L 697 513 L 698 512 L 698 511 L 699 510 L 699 509 L 700 508 L 700 506 L 702 504 L 702 503 L 703 502 L 703 501 L 704 500 L 704 498 L 706 496 L 706 494 L 707 493 L 707 492 L 708 491 L 708 490 L 709 489 L 709 488 L 710 487 L 710 486 L 711 485 L 711 484 L 712 483 L 712 482 L 713 481 L 713 480 L 714 479 L 714 478 L 715 477 L 715 476 L 716 475 L 716 474 L 717 473 L 717 472 L 718 471 L 718 470 L 719 469 L 719 467 L 720 466 L 720 465 L 721 464 L 721 463 L 722 462 L 722 461 L 723 460 L 723 459 L 724 458 L 724 457 L 725 456 L 725 455 L 726 454 L 726 452 L 727 451 L 727 450 L 728 449 L 728 448 L 729 447 L 729 446 L 730 445 L 730 444 L 731 443 L 731 442 L 732 441 L 732 439 L 733 438 L 733 437 L 734 436 L 734 435 L 735 434 L 735 433 L 736 432 L 736 431 L 737 430 L 737 429 L 738 428 L 738 426 L 739 425 L 739 424 L 740 423 L 740 422 L 741 421 L 741 420 L 742 419 L 742 417 L 743 416 L 743 415 L 744 414 L 744 413 L 745 412 L 745 411 L 746 410 L 746 408 L 747 407 L 747 406 L 748 405 L 748 404 L 749 403 L 749 402 L 750 401 L 750 400 L 751 399 L 751 397 L 752 396 L 752 395 L 753 394 L 753 393 L 754 392 L 754 391 L 755 390 L 755 388 L 756 387 L 756 386 L 757 385 L 757 384 L 758 383 L 758 382 L 759 381 L 759 380 L 760 379 L 760 377 L 761 376 L 761 375 L 762 374 L 762 373 L 763 372 L 763 370 L 764 369 L 764 368 L 765 367 L 765 366 L 766 365 L 766 364 L 767 363 L 767 362 L 768 361 L 768 359 L 769 358 L 769 357 L 770 356 L 770 355 L 771 354 L 771 353 L 772 352 L 772 351 L 773 350 L 773 348 L 774 347 L 774 346 L 775 345 L 775 344 L 776 343 L 776 342 L 777 341 L 777 339 L 778 338 L 778 337 L 779 336 L 779 335 L 780 334 L 780 333 L 781 332 L 781 330 L 782 329 L 782 328 L 783 327 L 783 326 L 784 325 L 784 324 L 785 323 L 785 322 L 786 321 L 786 319 L 787 318 L 787 317 L 788 316 L 788 315 L 789 314 L 789 313 L 790 312 L 790 310 L 791 309 L 791 308 L 792 307 L 792 306 L 793 305 L 793 304 L 794 303 L 794 301 L 795 300 L 795 299 L 796 298 L 796 297 L 797 296 L 797 295 L 798 294 L 798 292 L 799 291 L 799 290 L 800 289 L 800 288 L 801 287 L 801 286 L 802 285 L 802 283 L 803 282 L 803 281 L 804 280 L 804 279 L 805 278 L 805 277 L 806 276 L 806 274 L 807 273 L 807 272 L 808 271 L 808 270 L 809 269 L 809 268 L 810 267 L 810 266 L 811 265 L 811 263 L 812 262 L 812 261 L 813 260 L 813 259 L 814 258 L 814 257 L 815 256 L 815 254 L 816 253 L 816 252 L 817 251 L 817 250 L 818 249 L 818 248 L 819 247 L 819 246 L 820 245 L 820 244 L 821 243 L 821 242 L 822 241 L 822 240 L 824 238 L 824 237 L 826 235 L 826 234 L 827 233 L 827 232 L 830 229 L 830 228 L 842 216 L 843 216 L 845 214 L 846 214 L 848 212 L 849 212 L 850 211 L 851 211 L 852 210 L 853 210 L 854 209 L 856 209 L 857 208 L 858 208 L 859 207 L 861 207 L 862 206 L 863 206 L 864 205 L 866 205 L 867 204 L 869 204 L 870 203 L 872 203 L 873 202 L 875 202 L 876 201 L 879 201 L 880 200 L 885 200 L 886 199 L 889 199 L 890 198 L 892 198 L 897 193 L 897 183 L 896 182 L 896 181 L 893 178 L 892 178 L 891 177 L 671 177 L 670 178 L 669 178 L 668 179 L 667 179 L 664 182 L 664 183 L 663 184 L 663 190 L 664 191 L 664 192 L 668 196 L 669 196 L 670 197 L 671 197 L 672 198 L 674 198 L 675 199 L 677 199 L 678 200 L 681 200 L 682 201 L 684 201 L 685 202 L 687 202 L 688 203 L 689 203 L 690 204 L 691 204 L 692 205 L 693 205 L 694 206 L 695 206 L 697 208 L 698 208 L 704 214 L 704 215 L 705 216 L 705 217 L 706 218 L 706 219 L 707 220 L 707 221 L 708 222 L 708 224 L 709 225 L 709 228 L 710 229 L 710 247 L 709 248 L 709 252 L 708 253 L 708 256 L 707 257 L 707 260 L 706 261 L 706 263 L 705 264 L 705 266 L 704 267 L 704 269 L 703 270 L 703 272 L 702 273 L 702 274 L 701 275 L 701 276 L 700 277 L 700 279 L 699 280 L 699 282 L 698 283 L 698 284 L 697 285 L 697 287 L 696 288 L 696 289 L 695 290 L 695 292 L 694 293 L 694 294 L 693 295 L 693 297 L 692 298 L 692 299 L 691 300 L 691 302 L 690 303 L 690 304 L 689 305 L 689 306 L 688 307 L 688 309 L 687 310 L 687 312 L 686 313 L 686 314 L 685 315 L 685 316 L 684 317 L 684 319 L 683 320 L 683 321 L 682 322 L 682 324 L 681 325 L 681 326 L 680 327 L 680 329 L 679 330 L 679 331 L 678 332 L 678 334 L 677 335 L 677 337 L 676 338 L 676 339 L 675 340 L 675 341 L 674 342 L 674 344 L 673 345 L 673 346 L 672 347 L 672 349 L 671 350 L 671 351 L 670 352 L 670 354 L 669 355 L 669 356 L 668 357 L 668 359 L 667 360 L 667 361 L 666 362 L 666 364 L 665 365 L 665 366 L 664 367 L 664 368 L 663 369 L 663 371 L 662 372 L 662 373 L 661 374 L 661 376 L 660 377 L 660 378 L 659 379 L 659 381 L 658 382 L 658 383 L 657 384 L 657 385 L 656 386 L 656 388 L 655 389 L 655 390 L 654 391 L 654 393 L 653 394 L 653 395 L 652 396 L 652 398 L 651 399 L 651 400 L 650 401 L 650 402 L 649 403 L 649 405 L 648 406 L 648 407 L 647 408 L 647 410 L 646 411 L 646 412 L 645 413 L 645 415 L 644 416 L 644 417 L 643 418 L 643 419 L 642 420 L 642 422 L 641 423 L 641 424 L 640 425 L 640 427 L 639 428 L 639 429 L 638 430 L 638 431 L 637 432 L 637 434 L 636 435 L 636 436 L 635 437 L 635 439 L 634 440 L 634 441 L 633 442 L 633 443 L 632 444 L 632 446 L 631 447 L 631 448 L 630 449 L 630 451 L 629 452 L 629 453 L 628 454 L 628 455 L 627 456 L 627 457 L 626 458 L 626 460 L 625 461 L 625 462 L 624 463 L 624 465 L 623 466 L 623 467 L 622 468 L 622 469 L 621 470 L 621 472 L 620 473 L 620 474 L 619 475 L 619 476 L 618 477 L 618 479 L 617 480 L 617 481 L 616 482 L 616 483 L 615 484 L 615 486 L 614 487 L 614 488 L 613 489 L 613 490 L 612 491 L 612 492 L 611 493 L 611 495 L 610 496 L 610 497 L 609 498 L 609 499 L 608 500 L 608 502 L 607 503 L 607 504 L 606 505 L 606 506 L 605 507 L 605 509 L 604 510 L 604 511 L 603 512 L 603 513 L 602 514 L 602 515 L 601 516 L 601 518 L 600 519 L 600 520 L 599 521 L 599 522 L 598 523 L 598 525 L 597 526 L 597 527 L 596 528 L 596 529 L 595 530 L 595 532 L 594 533 L 594 534 L 593 535 L 593 536 L 592 537 L 592 538 L 591 539 L 591 541 L 590 542 L 590 543 L 589 544 L 589 545 L 588 546 L 588 548 L 587 549 L 587 550 L 586 551 L 586 552 L 585 553 L 585 554 L 584 555 L 584 556 L 583 557 L 583 559 L 582 560 L 582 561 L 581 562 L 581 563 L 580 564 L 580 566 L 579 567 L 579 568 L 578 569 L 578 570 L 577 571 L 577 572 L 576 573 L 576 574 L 575 575 L 575 577 L 574 578 L 574 579 L 573 580 L 573 581 L 572 582 L 572 583 L 571 584 L 571 586 L 570 587 L 570 588 L 569 589 L 569 590 L 568 591 L 568 592 L 567 593 L 567 595 L 566 596 L 566 597 L 565 598 L 565 599 L 564 600 L 564 601 L 563 602 L 563 604 L 561 606 L 561 608 L 560 609 L 560 610 L 559 611 L 559 612 L 558 613 L 558 615 L 557 616 L 557 617 L 556 618 L 556 619 L 555 620 L 555 621 L 554 622 L 554 623 L 553 624 L 553 625 L 552 626 L 552 628 L 551 629 L 551 630 L 550 631 L 550 632 L 549 633 L 549 634 L 548 635 L 548 636 L 547 637 L 547 638 L 546 639 L 546 641 L 545 642 L 545 643 L 544 644 L 544 645 L 543 646 L 543 647 L 542 648 L 542 649 L 541 650 L 541 652 L 540 653 L 540 654 L 539 655 L 539 656 L 538 657 L 538 658 L 537 659 L 537 660 L 536 661 L 536 662 L 535 663 L 535 664 L 534 665 L 534 666 L 533 667 L 533 669 L 532 670 L 532 671 L 531 672 L 531 673 L 530 674 L 530 675 L 529 676 L 529 677 L 528 678 L 528 679 L 527 680 L 527 681 L 526 682 L 526 683 L 525 684 L 525 685 L 524 686 L 524 687 L 523 688 L 523 689 L 521 691 L 521 692 L 520 693 L 520 694 L 519 695 L 519 696 L 517 698 L 517 699 L 515 701 L 515 702 L 513 704 L 513 705 L 510 708 L 510 709 L 507 712 L 506 711 L 506 709 L 505 708 L 505 706 L 504 705 L 504 704 L 503 703 L 503 701 L 502 700 L 502 699 L 501 698 L 501 696 L 500 695 L 500 693 L 499 692 L 499 690 L 498 689 L 498 688 L 497 687 L 497 685 L 496 684 L 496 682 L 495 681 L 495 680 L 494 679 L 494 677 L 493 676 L 493 674 L 492 673 L 492 672 L 491 671 L 491 669 L 490 668 L 490 666 L 489 665 L 489 663 L 488 662 L 488 661 L 487 660 L 487 658 L 486 657 L 486 655 L 485 654 L 485 652 L 484 651 L 484 650 L 483 649 L 483 647 L 482 646 L 482 644 L 481 643 L 481 641 L 480 640 L 480 639 L 479 638 L 479 636 L 478 635 L 478 633 L 477 632 L 477 630 L 476 629 L 476 627 L 475 626 L 475 624 L 474 623 L 474 622 L 473 621 L 473 619 L 472 618 L 472 616 L 471 615 L 471 614 L 470 613 L 470 611 L 469 610 L 469 608 L 468 607 L 468 605 L 467 604 L 467 603 L 466 602 L 466 600 L 465 599 L 465 597 L 464 596 L 464 594 L 463 593 L 463 592 L 462 591 L 462 589 L 461 588 L 461 586 L 460 585 L 460 584 L 459 583 L 459 581 L 458 580 L 458 578 L 457 577 L 457 575 L 456 574 L 456 573 L 455 572 L 455 570 L 454 569 L 454 567 L 453 566 L 453 565 L 452 564 L 452 562 L 451 561 L 451 559 L 450 558 L 450 556 L 449 555 L 449 554 L 448 553 L 448 551 L 447 550 L 447 548 L 446 547 L 446 546 L 445 545 L 445 543 L 444 542 L 444 540 L 443 539 L 443 538 L 442 537 L 442 535 L 441 534 L 441 532 L 440 531 L 440 530 L 439 529 L 439 527 L 438 526 L 438 524 L 437 523 L 437 521 L 436 520 L 436 519 L 435 518 L 435 516 L 434 515 L 434 513 L 433 512 L 433 511 L 432 510 L 432 508 L 431 507 L 431 506 L 430 505 L 430 503 L 429 502 L 429 500 L 428 499 L 428 498 L 427 497 L 427 495 L 426 494 L 426 493 L 425 492 L 425 490 L 424 489 L 424 487 L 423 486 L 423 484 L 422 483 L 422 482 L 421 481 L 421 479 L 420 478 L 420 477 L 419 476 L 419 474 L 418 473 L 418 471 L 417 470 L 417 469 L 416 468 L 416 466 L 415 465 L 415 463 L 414 462 L 414 461 L 413 460 L 413 458 L 412 457 L 412 455 L 411 454 L 411 452 L 410 451 L 410 450 L 409 449 L 409 448 L 408 447 L 408 445 L 407 444 L 407 442 L 406 441 L 406 440 L 405 439 L 405 437 L 404 436 L 404 434 L 403 433 L 403 432 L 402 431 L 402 429 L 401 428 L 401 426 L 400 425 L 400 423 L 399 422 L 399 421 L 398 420 L 398 418 L 397 417 L 397 416 L 396 415 L 396 413 L 395 412 L 395 410 L 394 409 L 394 408 L 393 407 L 393 405 L 392 404 L 392 402 L 391 401 L 391 399 L 390 398 L 390 397 L 389 396 L 389 394 L 388 393 L 388 391 L 387 390 L 387 389 L 386 388 L 386 386 L 385 385 L 385 383 L 384 382 L 384 381 L 383 380 L 383 378 L 382 377 L 382 375 L 381 374 L 381 372 L 380 371 L 380 370 L 379 369 L 379 367 L 378 366 L 378 364 L 377 363 L 377 362 L 376 361 L 376 359 L 375 358 L 375 356 L 374 355 L 374 354 L 373 353 L 373 351 L 372 350 L 372 348 L 371 347 L 371 345 L 370 344 L 370 343 L 369 342 L 369 340 L 368 339 L 368 337 L 367 336 L 367 335 L 366 334 L 366 332 L 365 331 L 365 329 L 364 328 L 364 326 L 363 325 L 363 324 L 362 323 L 362 321 L 361 320 L 361 318 L 360 317 L 360 315 L 359 314 L 359 313 L 358 312 L 358 310 L 357 309 L 357 307 L 356 306 L 356 304 L 355 303 L 355 301 L 354 300 L 354 299 L 353 298 L 353 296 L 352 295 L 352 293 L 351 292 L 351 290 L 350 289 L 350 288 L 349 287 L 349 285 L 348 284 L 348 282 L 347 281 L 347 279 L 346 278 L 346 277 L 345 276 L 345 274 L 344 273 L 344 271 L 343 270 L 343 268 L 342 267 L 342 265 L 341 264 L 341 263 L 340 262 L 340 260 L 339 259 L 339 257 L 338 256 L 338 254 L 337 253 L 337 252 L 336 251 L 336 249 L 335 248 L 335 246 L 334 245 L 334 243 L 333 242 L 333 240 L 332 239 L 332 236 L 331 235 L 331 231 L 330 230 L 330 214 L 331 213 L 331 212 L 332 211 L 332 210 L 334 208 L 334 207 L 335 206 L 336 206 L 339 203 L 340 203 L 341 202 L 342 202 L 343 201 L 344 201 L 345 200 L 347 200 L 348 199 L 350 199 L 351 198 L 353 198 L 355 196 L 356 196 L 359 193 L 359 192 L 360 191 L 360 184 L 359 183 L 359 182 L 356 179 L 355 179 L 354 178 L 352 178 L 351 177 Z"/>
</svg>